<?xml version="1.0" standalone="no"?>
<!DOCTYPE svg PUBLIC "-//W3C//DTD SVG 20010904//EN"
 "http://www.w3.org/TR/2001/REC-SVG-20010904/DTD/svg10.dtd">
<svg version="1.0" xmlns="http://www.w3.org/2000/svg"
 width="512.000000pt" height="512.000000pt" viewBox="0 0 512.000000 512.000000"
 preserveAspectRatio="xMidYMid meet">
<metadata>
Created by potrace 1.14, written by Peter Selinger 2001-2017
</metadata>
<g transform="translate(0.000000,512.000000) scale(0.100000,-0.100000)"
fill="#000000" stroke="none">
<path d="M985 4360 c-86 -22 -151 -74 -193 -154 l-27 -51 0 -1270 0 -1270 24
-47 c31 -61 80 -110 139 -139 l47 -24 713 -3 712 -3 0 -129 0 -130 -182 -1
c-219 -1 -229 -2 -273 -29 -72 -45 -110 -121 -103 -208 6 -69 26 -110 70 -147
65 -55 51 -54 651 -55 527 0 561 1 600 19 79 35 122 102 126 196 4 96 -62 191
-149 215 -19 6 -119 10 -222 10 l-188 0 0 130 0 130 698 0 c759 1 724 -2 825
60 42 26 57 43 82 93 l30 62 0 1270 0 1270 -28 53 c-32 60 -79 106 -141 137
-41 20 -55 20 -1611 22 -863 0 -1583 -2 -1600 -7z"/>
</g>
</svg>
